ffmpeg version git-2020-08-31-4a11a6f Copyright (c) 2000-2020 the FFmpeg developers
  built with gcc 10.2.1 (GCC) 20200805
  configuration: --enable-gpl --enable-version3 --enable-sdl2 --enable-fontconfig --enable-gnutls --enable-iconv --enable-libass --enable-libdav1d --enable-libbluray --enable-libfreetype --enable-libmp3lame --enable-libopencore-amrnb --enable-libopencore-amrwb --enable-libopenjpeg --enable-libopus --enable-libshine --enable-libsnappy --enable-libsoxr --enable-libsrt --enable-libtheora --enable-libtwolame --enable-libvpx --enable-libwavpack --enable-libwebp --enable-libx264 --enable-libx265 --enable-libxml2 --enable-libzimg --enable-lzma --enable-zlib --enable-gmp --enable-libvidstab --enable-libvmaf --enable-libvorbis --enable-libvo-amrwbenc --enable-libmysofa --enable-libspeex --enable-libxvid --enable-libaom --enable-libgsm --enable-librav1e --enable-libsvtav1 --disable-w32threads --enable-libmfx --enable-ffnvcodec --enable-cuda-llvm --enable-cuvid --enable-d3d11va --enable-nvenc --enable-nvdec --enable-dxva2 --enable-avisynth --enable-libopenmpt --enable-amf
  libavutil      56. 58.100 / 56. 58.100
  libavcodec     58.101.101 / 58.101.101
  libavformat    58. 51.101 / 58. 51.101
  libavdevice    58. 11.101 / 58. 11.101
  libavfilter     7. 87.100 /  7. 87.100
  libswscale      5.  8.100 /  5.  8.100
  libswresample   3.  8.100 /  3.  8.100
  libpostproc    55.  8.100 / 55.  8.100
Input #0, rawvideo, from 'pipe:':
  Duration: N/A, start: 0.000000, bitrate: 1140480 kb/s
    Stream #0:0: Video: rawvideo (RGB[24] / 0x18424752), rgb24, 1760x1080, 1140480 kb/s, 25 tbr, 25 tbn, 25 tbc
Stream mapping:
  Stream #0:0 -> #0:0 (rawvideo (native) -> h264 (libx264))
[libx264 @ 0000000000589dc0] using cpu capabilities: MMX2 SSE2Fast SSSE3 SSE4.2 AVX
[libx264 @ 0000000000589dc0] profile High 4:4:4 Predictive, level 4.0, 4:4:4, 8-bit
[libx264 @ 0000000000589dc0] 264 - core 161 - H.264/MPEG-4 AVC codec - Copyleft 2003-2020 - http://www.videolan.org/x264.html - options: cabac=1 ref=3 deblock=1:0:0 analyse=0x3:0x113 me=hex subme=7 psy=1 psy_rd=1.00:0.00 mixed_ref=1 me_range=16 chroma_me=1 trellis=1 8x8dct=1 cqm=0 deadzone=21,11 fast_pskip=1 chroma_qp_offset=4 threads=12 lookahead_threads=2 sliced_threads=0 nr=0 decimate=1 interlaced=0 bluray_compat=0 constrained_intra=0 bframes=3 b_pyramid=2 b_adapt=1 b_bias=0 direct=1 weightb=1 open_gop=0 weightp=2 keyint=250 keyint_min=25 scenecut=40 intra_refresh=0 rc_lookahead=40 rc=crf mbtree=1 crf=23.0 qcomp=0.60 qpmin=0 qpmax=69 qpstep=4 ip_ratio=1.40 aq=1:1.00
Output #0, mp4, to 'E:\Java Workspaces\GameCalendar\Game Calendar\videotest.mp4':
  Metadata:
    encoder         : Lavf58.51.101
    Stream #0:0: Video: h264 (libx264) (avc1 / 0x31637661), yuv444p, 1760x1080, q=-1--1, 25 fps, 12800 tbn, 25 tbc
    Metadata:
      encoder         : Lavc58.101.101 libx264
    Side data:
      cpb: bitrate max/min/avg: 0/0/0 buffer size: 0 vbv_delay: N/A
frame=   17 fps=0.0 q=0.0 size=       0kB time=00:00:00.00 bitrate=N/A speed=   0x    frame=   35 fps= 35 q=0.0 size=       0kB time=00:00:00.00 bitrate=N/A speed=   0x    frame=   44 fps= 27 q=0.0 size=       0kB time=00:00:00.00 bitrate=N/A speed=   0x    frame=   59 fps= 27 q=28.0 size=       0kB time=00:00:00.00 bitrate=4923.1kbits/s speed=3.61e-05x    frame=   74 fps= 28 q=28.0 size=       0kB time=00:00:00.60 bitrate=   0.6kbits/s speed=0.224x    frame=   85 fps= 25 q=28.0 size=       0kB time=00:00:01.04 bitrate=   0.4kbits/s speed=0.307x    frame=  100 fps= 26 q=28.0 size=       0kB time=00:00:01.64 bitrate=   0.2kbits/s speed=0.42x    frame=  115 fps= 26 q=28.0 size=       0kB time=00:00:02.24 bitrate=   0.2kbits/s speed=0.504x    frame=  125 fps= 24 q=28.0 size=       0kB time=00:00:02.64 bitrate=   0.1kbits/s speed=0.515x    frame=  141 fps= 25 q=28.0 size=       0kB time=00:00:03.28 bitrate=   0.1kbits/s speed=0.58x    frame=  155 fps= 25 q=28.0 size=       0kB time=00:00:03.84 bitrate=   0.1kbits/s speed=0.623x    frame=  165 fps= 24 q=28.0 size=       0kB time=00:00:04.24 bitrate=   0.1kbits/s speed=0.628x    frame=  181 fps= 25 q=28.0 size=       0kB time=00:00:04.88 bitrate=   0.1kbits/s speed=0.673x    frame=  196 fps= 25 q=28.0 size=       0kB time=00:00:05.48 bitrate=   0.1kbits/s speed=0.706x    frame=  206 fps= 25 q=28.0 size=       0kB time=00:00:05.88 bitrate=   0.1kbits/s speed=0.711x    frame=  222 fps= 25 q=28.0 size=       0kB time=00:00:06.52 bitrate=   0.1kbits/s speed=0.743x    frame=  238 fps= 26 q=28.0 size=       0kB time=00:00:07.16 bitrate=   0.1kbits/s speed=0.771x    frame=  247 fps= 25 q=28.0 size=       0kB time=00:00:07.52 bitrate=   0.1kbits/s speed=0.757x    frame=  262 fps= 25 q=28.0 size=       0kB time=00:00:08.12 bitrate=   0.0kbits/s speed=0.778x    frame=  277 fps= 25 q=28.0 size=       0kB time=00:00:08.72 bitrate=   0.0kbits/s speed=0.797x    frame=  287 fps= 24 q=28.0 size=       0kB time=00:00:09.12 bitrate=   0.0kbits/s speed=0.769x    frame=  300 fps= 24 q=28.0 size=       0kB time=00:00:09.64 bitrate=   0.0kbits/s speed=0.778x    frame=  315 fps= 24 q=28.0 size=       0kB time=00:00:10.24 bitrate=   0.0kbits/s speed=0.793x    frame=  327 fps= 24 q=28.0 size=       0kB time=00:00:10.72 bitrate=   0.0kbits/s speed=0.79x    frame=  343 fps= 24 q=28.0 size=       0kB time=00:00:11.36 bitrate=   0.0kbits/s speed=0.807x    frame=  359 fps= 25 q=28.0 size=       0kB time=00:00:12.00 bitrate=   0.0kbits/s speed=0.823x    frame=  367 fps= 24 q=28.0 size=       0kB time=00:00:12.32 bitrate=   0.0kbits/s speed=0.803x    frame=  383 fps= 24 q=28.0 size=       0kB time=00:00:12.96 bitrate=   0.0kbits/s speed=0.817x    frame=  398 fps= 24 q=28.0 size=       0kB time=00:00:13.56 bitrate=   0.0kbits/s speed=0.829x    frame=  407 fps= 24 q=28.0 size=       0kB time=00:00:13.92 bitrate=   0.0kbits/s speed=0.807x    frame=  423 fps= 24 q=28.0 size=       0kB time=00:00:14.56 bitrate=   0.0kbits/s speed=0.82x    frame=  440 fps= 24 q=28.0 size=       0kB time=00:00:15.24 bitrate=   0.0kbits/s speed=0.834x    frame=  447 fps= 24 q=28.0 size=       0kB time=00:00:15.52 bitrate=   0.0kbits/s speed=0.824x    frame=  464 fps= 24 q=28.0 size=       0kB time=00:00:16.20 bitrate=   0.0kbits/s speed=0.837x    frame=  481 fps= 24 q=28.0 size=       0kB time=00:00:16.88 bitrate=   0.0kbits/s speed=0.849x    frame=  488 fps= 24 q=28.0 size=       0kB time=00:00:17.16 bitrate=   0.0kbits/s speed=0.838x    frame=  505 fps= 24 q=28.0 size=       0kB time=00:00:17.84 bitrate=   0.0kbits/s speed=0.85x    frame=  521 fps= 24 q=28.0 size=       0kB time=00:00:18.48 bitrate=   0.0kbits/s speed=0.859x    frame=  528 fps= 24 q=28.0 size=       0kB time=00:00:18.76 bitrate=   0.0kbits/s speed=0.852x    frame=  544 fps= 24 q=28.0 size=       0kB time=00:00:19.40 bitrate=   0.0kbits/s speed=0.861x    frame=  560 fps= 24 q=28.0 size=       0kB time=00:00:20.04 bitrate=   0.0kbits/s speed=0.869x    frame=  568 fps= 23 q=-1.0 Lsize=      55kB time=00:00:22.60 bitrate=  19.9kbits/s speed=0.933x    
video:47kB audio:0kB subtitle:0kB other streams:0kB global headers:0kB muxing overhead: 15.753989%
[libx264 @ 0000000000589dc0] frame I:3     Avg QP:29.00  size:  3798
[libx264 @ 0000000000589dc0] frame P:143   Avg QP:31.13  size:    70
[libx264 @ 0000000000589dc0] frame B:422   Avg QP:35.33  size:    63
[libx264 @ 0000000000589dc0] consecutive B-frames:  0.9%  0.0%  0.5% 98.6%
[libx264 @ 0000000000589dc0] mb I  I16..4: 98.5%  0.0%  1.5%
[libx264 @ 0000000000589dc0] mb P  I16..4:  0.0%  0.0%  0.0%  P16..4:  0.0%  0.0%  0.0%  0.0%  0.0%    skip:100.0%
[libx264 @ 0000000000589dc0] mb B  I16..4:  0.0%  0.0%  0.0%  B16..8:  0.0%  0.0%  0.0%  direct: 0.0%  skip:100.0%
[libx264 @ 0000000000589dc0] 8x8 transform intra:0.0%
[libx264 @ 0000000000589dc0] coded y,u,v intra: 0.7% 0.7% 0.7% inter: 0.0% 0.0% 0.0%
[libx264 @ 0000000000589dc0] i16 v,h,dc,p: 100%  0%  0%  0%
[libx264 @ 0000000000589dc0] i4 v,h,dc,ddl,ddr,vr,hd,vl,hu: 75%  0% 25%  0%  0%  0%  0%  0%  0%
[libx264 @ 0000000000589dc0] Weighted P-Frames: Y:0.0% UV:0.0%
[libx264 @ 0000000000589dc0] kb/s:16.84
